<svg width="50" height="48" viewBox="0 0 50 48" fill="none" xmlns="http://www.w3.org/2000/svg">
<path d="M11.0167 25.183C11.0146 25.1715 11.0126 25.1599 11.0109 25.1482L8.57067 10.5068C8.32958 9.06024 7.07801 8 5.61149 8H5C4.44772 8 4 7.55228 4 7C4 6.44772 4.44772 6 5 6H5.61149C7.99513 6 10.038 7.68058 10.5105 10H43C43.6644 10 44.144 10.6359 43.9615 11.2747L39.9615 25.2747C39.8389 25.704 39.4465 26 39 26H13.1805L13.4293 27.4932C13.6704 28.9398 14.922 30 16.3885 30H39C39.5523 30 40 30.4477 40 31C40 31.5523 39.5523 32 39 32H16.3885C13.9443 32 11.8584 30.2329 11.4565 27.822L11.0167 25.183V25.183ZM10.8471 12L12.8471 24H38.2457L41.6743 12H10.8471ZM16 42C13.7909 42 12 40.2091 12 38C12 35.7909 13.7909 34 16 34C18.2091 34 20 35.7909 20 38C20 40.2091 18.2091 42 16 42ZM16 40C17.1046 40 18 39.1046 18 38C18 36.8954 17.1046 36 16 36C14.8954 36 14 36.8954 14 38C14 39.1046 14.8954 40 16 40ZM34 42C31.7909 42 30 40.2091 30 38C30 35.7909 31.7909 34 34 34C36.2091 34 38 35.7909 38 38C38 40.2091 36.2091 42 34 42ZM34 40C35.1046 40 36 39.1046 36 38C36 36.8954 35.1046 36 34 36C32.8954 36 32 36.8954 32 38C32 39.1046 32.8954 40 34 40Z" fill="#292929"/>
<circle cx="42" cy="10" r="8" fill="#FD9339"/>
<path d="M39.7507 12.284C39.6667 12.284 39.5827 12.32 39.4747 12.38C39.3427 12.464 39.2827 12.584 39.2827 12.752C39.2827 12.86 39.3187 12.956 39.3787 13.04C39.9427 13.76 40.7107 14.12 41.6707 14.12C42.4387 14.12 43.0867 13.868 43.6147 13.364C44.1427 12.86 44.4067 12.188 44.4067 11.348C44.4067 10.568 44.1547 9.932 43.6627 9.452C43.1707 8.984 42.5347 8.744 41.7547 8.744C41.5147 8.744 41.2867 8.768 41.0827 8.828L41.3947 6.56H43.8907C44.4787 6.608 44.4787 5.552 43.8907 5.6H41.0107C40.7587 5.6 40.5307 5.804 40.4947 6.056L40.1227 9.032V9.128C40.1227 9.452 40.3267 9.668 40.6507 9.668C40.6867 9.668 40.7467 9.656 40.7587 9.656C41.0107 9.62 41.2147 9.608 41.3467 9.608C42.5827 9.608 43.3867 10.364 43.3867 11.384C43.3867 11.9 43.2307 12.32 42.9067 12.656C42.5827 12.992 42.1747 13.16 41.6947 13.16C41.0587 13.16 40.5547 12.944 40.1587 12.512C40.0267 12.356 39.8827 12.284 39.7507 12.284Z" fill="white"/>
</svg>
